<svg xmlns="http://www.w3.org/2000/svg" xmlns:xlink="http://www.w3.org/1999/xlink" version="1.1" width="75" height="75" viewBox="0 0 256 256" xml:space="preserve">

<defs>
</defs>
<g style="stroke: none; stroke-width: 0; stroke-dasharray: none; stroke-linecap: butt; stroke-linejoin: miter; stroke-miterlimit: 10; fill: none; fill-rule: nonzero; opacity: 1;" transform="translate(1.4065934065934016 1.4065934065934016) scale(2.81 2.81)" >
	<path d="M 63.054 56.415 v -6.414 H 51.886 v 0.35 v 1.102 v 31.084 v 0.879 c 0 3.084 2.5 5.584 5.584 5.584 s 5.584 -2.5 5.584 -5.584 v -1.559 C 63.054 81.856 63.054 55.849 63.054 56.415 z" style="stroke: none; stroke-width: 1; stroke-dasharray: none; stroke-linecap: butt; stroke-linejoin: miter; stroke-miterlimit: 10; fill: rgb(245,180,26); fill-rule: nonzero; opacity: 1;" transform=" matrix(1 0 0 1 0 0) " stroke-linecap="round" />
	<path d="M 57.47 90 c -3.631 0 -6.584 -2.953 -6.584 -6.584 V 50.001 c 0 -0.553 0.447 -1 1 -1 h 11.168 c 0.553 0 1 0.447 1 1 v 33.415 C 64.054 87.047 61.101 90 57.47 90 z M 52.886 51.001 v 32.415 c 0 2.527 2.057 4.584 4.584 4.584 s 4.584 -2.057 4.584 -4.584 V 51.001 H 52.886 z" style="stroke: none; stroke-width: 1; stroke-dasharray: none; stroke-linecap: butt; stroke-linejoin: miter; stroke-miterlimit: 10; fill: rgb(0,0,0); fill-rule: nonzero; opacity: 1;" transform=" matrix(1 0 0 1 0 0) " stroke-linecap="round" />
	<path d="M 37.263 59.34 v 20.014 h 3.082 l -0.001 0.001 c 2.315 1.979 5.316 3.178 8.582 3.178 h 4.501 h 8.179 c 1.736 0 3.157 -1.421 3.157 -3.157 V 79.07 c 0 -1.736 -1.421 -3.157 -3.157 -3.157 h 2.41 c 1.736 0 3.157 -1.421 3.157 -3.157 V 72.45 c 0 -1.736 -1.421 -3.157 -3.157 -3.157 h 2.24 c 1.736 0 3.157 -1.421 3.157 -3.157 V 65.83 c 0 -1.736 -1.421 -3.157 -3.157 -3.157 h 0.18 c 1.736 0 3.157 -1.421 3.157 -3.157 V 59.21 c 0 -1.736 -1.421 -3.157 -3.157 -3.157 l -11.2 0.015 c -2.553 -0.231 -2.989 -2.071 -2.998 -5.04 c -1.208 0.09 -2.404 0.535 -3.42 1.357 l -8.32 6.731 l 0 0 h -3.235" style="stroke: none; stroke-width: 1; stroke-dasharray: none; stroke-linecap: butt; stroke-linejoin: miter; stroke-miterlimit: 10; fill: rgb(251,206,157); fill-rule: nonzero; opacity: 1;" transform=" matrix(1 0 0 1 0 0) " stroke-linecap="round" />
	<rect x="28.42" y="55.13" rx="0" ry="0" width="8.85" height="28.26" style="stroke: none; stroke-width: 1; stroke-dasharray: none; stroke-linecap: butt; stroke-linejoin: miter; stroke-miterlimit: 10; fill: rgb(119,157,188); fill-rule: nonzero; opacity: 1;" transform=" matrix(1 0 0 1 0 0) "/>
	<rect x="15.59" y="56.9" rx="0" ry="0" width="12.83" height="24.7" style="stroke: none; stroke-width: 1; stroke-dasharray: none; stroke-linecap: butt; stroke-linejoin: miter; stroke-miterlimit: 10; fill: rgb(119,157,188); fill-rule: nonzero; opacity: 1;" transform=" matrix(1 0 0 1 0 0) "/>
	<path d="M 61.12 83.537 H 48.609 c -3.209 0 -6.33 -1.111 -8.83 -3.136 L 37.101 80.4 c -0.552 0 -1 -0.448 -1 -1 c 0 -0.553 0.448 -1 1 -1 h 3.041 c 0.238 0 0.469 0.085 0.65 0.24 c 2.183 1.868 4.959 2.896 7.817 2.896 H 61.12 c 1.166 0 2.114 -0.949 2.114 -2.115 V 79.12 c 0 -1.166 -0.948 -2.114 -2.114 -2.114 c -0.553 0 -1 -0.447 -1 -1 s 0.447 -1 1 -1 h 2.377 c 1.166 0 2.115 -0.949 2.115 -2.115 v -0.302 c 0 -1.166 -0.949 -2.115 -2.115 -2.115 c -0.553 0 -1 -0.447 -1 -1 s 0.447 -1 1 -1 h 2.211 c 1.166 0 2.114 -0.948 2.114 -2.114 v -0.302 c 0 -1.166 -0.948 -2.115 -2.114 -2.115 c -0.553 0 -1 -0.447 -1 -1 s 0.447 -1 1 -1 h 0.177 c 1.166 0 2.115 -0.948 2.115 -2.114 v -0.303 c 0 -1.166 -0.949 -2.114 -2.115 -2.114 l -11.049 0.015 c -3.942 -0.352 -3.953 -4.006 -3.959 -5.97 c -0.002 -0.552 0.444 -1.001 0.997 -1.003 c 0.001 0 0.002 0 0.003 0 c 0.551 0 0.998 0.445 1 0.997 c 0.01 3.269 0.611 3.85 2.048 3.979 l 10.959 -0.019 c 2.271 0 4.116 1.846 4.116 4.114 v 0.303 c 0 1.286 -0.593 2.436 -1.521 3.19 c 0.825 0.754 1.343 1.837 1.343 3.039 v 0.302 c 0 1.85 -1.228 3.419 -2.911 3.935 c 0.442 0.656 0.701 1.446 0.701 2.295 v 0.302 c 0 1.901 -1.296 3.506 -3.052 3.976 c 0.426 0.648 0.674 1.423 0.674 2.254 v 0.302 C 65.234 81.691 63.389 83.537 61.12 83.537 z" style="stroke: none; stroke-width: 1; stroke-dasharray: none; stroke-linecap: butt; stroke-linejoin: miter; stroke-miterlimit: 10; fill: rgb(0,0,0); fill-rule: nonzero; opacity: 1;" transform=" matrix(1 0 0 1 0 0) " stroke-linecap="round" />
	<path d="M 40.293 60.433 h -3.191 c -0.552 0 -1 -0.447 -1 -1 s 0.448 -1 1 -1 h 2.837 l 7.934 -6.418 c 1.129 -0.912 2.487 -1.451 3.93 -1.559 c 0.559 -0.05 1.03 0.372 1.071 0.923 s -0.372 1.03 -0.923 1.071 c -1.034 0.077 -2.01 0.464 -2.82 1.119 l -8.209 6.641 C 40.744 60.354 40.522 60.433 40.293 60.433 z" style="stroke: none; stroke-width: 1; stroke-dasharray: none; stroke-linecap: butt; stroke-linejoin: miter; stroke-miterlimit: 10; fill: rgb(0,0,0); fill-rule: nonzero; opacity: 1;" transform=" matrix(1 0 0 1 0 0) " stroke-linecap="round" />
	<path d="M 56.975 63.949 c -0.552 0 -1 -0.447 -1 -0.999 c 0 -0.553 0.447 -1.001 0.999 -1.001 l 8.733 -0.007 h 0.001 c 0.552 0 1 0.447 1 0.999 c 0 0.553 -0.447 1.001 -0.999 1.001 L 56.975 63.949 L 56.975 63.949 z" style="stroke: none; stroke-width: 1; stroke-dasharray: none; stroke-linecap: butt; stroke-linejoin: miter; stroke-miterlimit: 10; fill: rgb(0,0,0); fill-rule: nonzero; opacity: 1;" transform=" matrix(1 0 0 1 0 0) " stroke-linecap="round" />
	<path d="M 56.975 70.48 c -0.552 0 -0.999 -0.447 -1 -0.999 s 0.446 -1 0.999 -1.001 l 6.522 -0.007 h 0.001 c 0.552 0 0.999 0.447 1 0.999 s -0.446 1 -0.999 1.001 L 56.975 70.48 L 56.975 70.48 z" style="stroke: none; stroke-width: 1; stroke-dasharray: none; stroke-linecap: butt; stroke-linejoin: miter; stroke-miterlimit: 10; fill: rgb(0,0,0); fill-rule: nonzero; opacity: 1;" transform=" matrix(1 0 0 1 0 0) " stroke-linecap="round" />
	<path d="M 61.12 77.006 h -4.146 c -0.553 0 -1 -0.447 -1 -1 s 0.447 -1 1 -1 h 4.146 c 0.553 0 1 0.447 1 1 S 61.673 77.006 61.12 77.006 z" style="stroke: none; stroke-width: 1; stroke-dasharray: none; stroke-linecap: butt; stroke-linejoin: miter; stroke-miterlimit: 10; fill: rgb(0,0,0); fill-rule: nonzero; opacity: 1;" transform=" matrix(1 0 0 1 0 0) " stroke-linecap="round" />
	<path d="M 37.102 84.375 h -8.729 c -0.552 0 -1 -0.447 -1 -1 V 55.494 c 0 -0.553 0.448 -1 1 -1 h 8.729 c 0.552 0 1 0.447 1 1 v 27.881 C 38.102 83.928 37.654 84.375 37.102 84.375 z M 29.373 82.375 h 6.729 V 56.494 h -6.729 V 82.375 z" style="stroke: none; stroke-width: 1; stroke-dasharray: none; stroke-linecap: butt; stroke-linejoin: miter; stroke-miterlimit: 10; fill: rgb(0,0,0); fill-rule: nonzero; opacity: 1;" transform=" matrix(1 0 0 1 0 0) " stroke-linecap="round" />
	<path d="M 28.373 82.62 H 15.716 c -0.552 0 -1 -0.447 -1 -1 V 57.249 c 0 -0.553 0.448 -1 1 -1 h 12.657 c 0.552 0 1 0.447 1 1 V 81.62 C 29.373 82.173 28.925 82.62 28.373 82.62 z M 16.716 80.62 h 10.657 V 58.249 H 16.716 V 80.62 z" style="stroke: none; stroke-width: 1; stroke-dasharray: none; stroke-linecap: butt; stroke-linejoin: miter; stroke-miterlimit: 10; fill: rgb(0,0,0); fill-rule: nonzero; opacity: 1;" transform=" matrix(1 0 0 1 0 0) " stroke-linecap="round" />
	<path d="M 57.47 51.001 c -0.553 0 -1 -0.447 -1 -1 v -8.765 c 0 -0.552 0.447 -1 1 -1 s 1 0.448 1 1 v 8.765 C 58.47 50.554 58.022 51.001 57.47 51.001 z" style="stroke: none; stroke-width: 1; stroke-dasharray: none; stroke-linecap: butt; stroke-linejoin: miter; stroke-miterlimit: 10; fill: rgb(0,0,0); fill-rule: nonzero; opacity: 1;" transform=" matrix(1 0 0 1 0 0) " stroke-linecap="round" />
	<path d="M 73.976 36.129 c 1.049 2.411 -0.717 5.107 -3.347 5.107 H 57.47 H 44.31 c -2.629 0 -4.396 -2.696 -3.347 -5.107 L 55.771 2.113 c 0.646 -1.485 2.752 -1.485 3.398 0 L 73.976 36.129 z" style="stroke: none; stroke-width: 1; stroke-dasharray: none; stroke-linecap: butt; stroke-linejoin: miter; stroke-miterlimit: 10; fill: rgb(240,240,240); fill-rule: nonzero; opacity: 1;" transform=" matrix(1 0 0 1 0 0) " stroke-linecap="round" />
	<path d="M 70.63 42.236 H 44.311 c -1.573 0 -3.027 -0.786 -3.89 -2.102 c -0.862 -1.315 -1.002 -2.962 -0.375 -4.404 L 54.854 1.714 C 55.314 0.657 56.316 0 57.47 0 s 2.155 0.657 2.616 1.714 L 74.894 35.73 l 0 0 c 0.628 1.442 0.487 3.089 -0.375 4.405 C 73.656 41.451 72.202 42.236 70.63 42.236 z M 57.47 2 c -0.131 0 -0.575 0.037 -0.782 0.513 L 41.88 36.528 c -0.363 0.834 -0.286 1.75 0.213 2.51 c 0.499 0.761 1.307 1.198 2.217 1.198 H 70.63 c 0.909 0 1.717 -0.437 2.216 -1.197 c 0.499 -0.761 0.577 -1.676 0.214 -2.511 L 58.252 2.512 C 58.045 2.037 57.601 2 57.47 2 z" style="stroke: none; stroke-width: 1; stroke-dasharray: none; stroke-linecap: butt; stroke-linejoin: miter; stroke-miterlimit: 10; fill: rgb(0,0,0); fill-rule: nonzero; opacity: 1;" transform=" matrix(1 0 0 1 0 0) " stroke-linecap="round" />
</g>
</svg>