<?xml version="1.0" standalone="no"?>
<!DOCTYPE svg PUBLIC "-//W3C//DTD SVG 20010904//EN"
 "http://www.w3.org/TR/2001/REC-SVG-20010904/DTD/svg10.dtd">
<svg version="1.0" xmlns="http://www.w3.org/2000/svg"
 width="300.000000pt" height="144.000000pt" viewBox="0 0 300.000000 144.000000"
 preserveAspectRatio="xMidYMid meet">
<metadata>
Created by potrace 1.10, written by Peter Selinger 2001-2011
</metadata>
<g transform="translate(0.000000,144.000000) scale(0.100000,-0.100000)"
fill="#1c78ce" stroke="none">
<path d="M833 1339 c-126 -120 -444 -431 -499 -488 -36 -37 -41 -46 -31 -62 9
-14 25 -19 62 -20 27 -1 56 -1 64 1 7 1 23 -1 35 -4 21 -5 21 -8 21 -323 l0
-318 -194 -2 c-107 -1 -200 -4 -208 -7 -23 -9 -15 -46 12 -56 14 -5 116 -9
227 -8 231 2 238 4 238 81 1 104 -6 617 -9 659 -2 32 -31 49 -77 47 -24 -2
-46 -1 -49 2 -4 5 245 254 406 405 30 28 74 72 99 98 l44 46 -21 21 -21 22
-99 -94z m117 57 c0 -8 -4 -16 -9 -18 -6 -1 -68 -59 -138 -128 -71 -69 -201
-196 -290 -282 l-162 -158 90 0 89 0 0 -367 0 -368 -220 0 c-169 0 -220 3
-220 13 0 9 49 12 210 12 l210 0 0 345 0 345 -95 0 c-52 0 -95 4 -95 9 0 12
610 611 623 611 4 0 7 -6 7 -14z"/>
<path d="M1095 810 c-17 -19 -20 -35 -18 -101 1 -44 6 -86 13 -94 18 -21 335
-20 369 2 22 14 26 14 35 1 16 -22 252 -20 266 2 5 8 10 50 10 93 0 96 -14
115 -83 112 -62 -3 -77 -17 -77 -72 0 -57 -24 -54 -28 3 -4 46 -14 60 -48 67
-17 3 -29 -2 -38 -15 -13 -19 -15 -19 -35 -2 -16 14 -41 18 -108 20 -51 2 -93
-2 -101 -8 -8 -7 -20 -8 -35 -1 -45 19 -101 16 -122 -7z m122 -22 c6 -7 13
-39 17 -70 5 -50 3 -61 -14 -78 -17 -17 -31 -20 -68 -18 l-47 3 -3 88 -3 87
54 0 c32 0 59 -5 64 -12z m171 -10 c-3 -20 -9 -23 -47 -23 -26 0 -46 -5 -48
-12 -3 -9 7 -13 31 -13 29 0 36 -4 36 -20 0 -16 -7 -20 -36 -20 -24 0 -34 -4
-31 -12 2 -8 22 -13 48 -13 37 0 44 -3 44 -20 0 -18 -7 -20 -65 -20 l-65 0 -3
74 c-2 41 -1 80 2 88 4 9 25 13 71 13 63 0 66 -1 63 -22z m86 -30 c17 -26 33
-47 36 -47 3 -1 3 22 1 50 -3 48 -2 51 20 47 13 -2 24 -9 23 -15 -1 -7 -2 -47
-2 -88 -2 -92 -16 -97 -68 -25 -20 28 -38 50 -40 50 -3 0 -4 -21 -2 -47 3 -42
1 -48 -17 -48 -18 0 -20 8 -23 74 -2 41 0 81 3 88 9 25 37 9 69 -39z m206 -18
c0 -57 -4 -74 -20 -90 -32 -32 -90 -19 -90 21 0 17 4 19 35 13 l35 -6 0 66 c0
59 2 66 20 66 18 0 20 -7 20 -70z m60 -20 c0 -83 -1 -90 -20 -90 -19 0 -20 7
-20 90 0 83 1 90 20 90 19 0 20 -7 20 -90z"/>
<path d="M1142 713 c3 -43 5 -48 27 -48 31 0 40 25 12 32 -24 6 -29 33 -6 33
8 0 15 7 15 15 0 9 -10 15 -26 15 -24 0 -25 -2 -22 -47z"/>
<path d="M1810 810 c-28 -28 -29 -168 -2 -193 25 -22 45 -21 67 3 21 23 50 26
62 6 11 -18 49 -37 57 -28 4 3 22 7 41 8 18 0 41 8 50 18 17 16 19 16 39 -3
23 -22 96 -27 129 -9 12 6 23 6 30 0 7 -5 32 -10 57 -10 25 0 50 5 57 10 7 6
18 6 30 0 30 -16 110 -13 125 5 7 9 16 39 19 67 l6 51 2 -51 c1 -61 25 -90 65
-80 28 7 40 34 38 88 -2 39 12 51 53 44 17 -2 21 -12 23 -57 4 -61 15 -79 48
-79 30 0 47 31 46 84 -1 35 3 43 28 58 33 19 39 48 15 72 -13 13 -47 15 -198
14 -106 0 -191 -5 -205 -11 -16 -8 -26 -7 -34 1 -15 15 -65 15 -107 1 -19 -7
-36 -8 -44 -2 -19 15 -87 16 -104 2 -8 -7 -19 -24 -25 -38 l-9 -25 -18 31
c-24 39 -53 47 -80 21 -12 -10 -21 -23 -21 -28 0 -18 -15 -10 -25 13 -15 33
-67 35 -92 3 l-20 -25 -28 29 c-34 35 -48 37 -75 10z m73 -51 l29 -40 26 41
c15 22 34 40 44 40 16 0 18 -10 18 -91 0 -81 -2 -90 -17 -87 -13 2 -19 16 -23
52 -5 49 -5 49 -19 23 -18 -35 -42 -34 -63 1 l-17 27 -1 -52 c0 -46 -3 -53
-20 -53 -19 0 -20 7 -20 90 0 79 2 90 18 90 9 0 30 -19 45 -41z m271 -39 c20
-45 34 -85 31 -90 -10 -17 -33 -11 -40 10 -9 29 -67 28 -87 -2 -15 -23 -38
-18 -38 8 0 26 70 154 84 154 7 0 30 -36 50 -80z m161 60 c14 -15 16 -29 12
-63 -3 -23 -2 -49 3 -56 4 -8 6 -20 3 -28 -8 -21 -33 -15 -43 12 -13 35 -50
34 -50 -1 0 -19 -5 -25 -17 -22 -15 3 -18 17 -21 91 l-3 87 49 0 c36 0 54 -5
67 -20z m149 -2 c10 -16 14 -44 13 -87 -3 -70 -19 -90 -38 -47 -16 34 -49 35
-49 1 0 -18 -5 -25 -20 -25 -19 0 -20 7 -20 90 l0 90 50 0 c40 0 52 -4 64 -22z
m74 -71 c3 -82 2 -87 -18 -87 -19 0 -20 6 -20 91 0 81 2 90 18 87 14 -3 17
-17 20 -91z m172 72 c0 -16 -5 -20 -27 -17 l-28 3 -1 -68 c-2 -74 -5 -83 -29
-74 -11 5 -15 22 -15 75 0 67 0 68 -27 67 -18 0 -29 6 -31 18 -3 15 6 17 77
17 75 0 81 -1 81 -21z m178 4 c-2 -12 -13 -18 -33 -18 l-30 -1 0 -69 c-1 -63
-3 -70 -20 -70 -18 0 -21 9 -25 70 -5 67 -6 70 -30 70 -16 0 -26 6 -28 18 -3
15 6 17 83 17 77 0 86 -2 83 -17z"/>
<path d="M2095 720 c-8 -13 -1 -24 14 -19 6 3 7 10 2 18 -6 10 -10 10 -16 1z"/>
<path d="M2240 735 c0 -22 4 -26 23 -23 14 2 22 10 22 23 0 13 -8 21 -22 23
-19 3 -23 -1 -23 -23z"/>
<path d="M2390 735 c0 -22 4 -26 23 -23 14 2 22 10 22 23 0 13 -8 21 -22 23
-19 3 -23 -1 -23 -23z"/>
<path d="M745 719 c-17 -18 -19 -38 -18 -191 1 -130 4 -174 15 -184 19 -20
189 -24 211 -5 15 12 16 36 13 198 -3 143 -7 187 -17 194 -8 5 -53 9 -100 9
-74 0 -88 -3 -104 -21z m205 -184 l1 -185 -101 0 -100 0 0 178 c0 98 3 182 7
185 3 4 48 7 99 7 l92 0 2 -185z"/>
<path d="M772 615 l1 -76 74 3 75 3 1 73 2 72 -77 0 -77 0 1 -75z m128 5 c0
-27 -4 -50 -10 -51 -5 -1 -19 -1 -30 -1 -61 0 -60 -1 -60 52 l0 50 50 0 50 0
0 -50z"/>
<path d="M772 445 l-2 -75 74 0 74 0 4 71 c2 39 1 73 -1 75 -2 2 -37 4 -76 4
l-71 0 -2 -75z m123 0 c0 -46 -2 -49 -25 -48 -73 1 -70 -1 -70 52 l0 48 48 -1
47 -1 0 -50z"/>
<path d="M1760 500 c-30 -4 -59 -8 -65 -10 -5 -2 -24 -1 -41 4 -17 4 -43 2
-59 -4 -19 -7 -31 -8 -39 0 -14 14 -37 12 -56 -5 -16 -14 -20 -14 -48 2 -27
15 -35 16 -52 5 -17 -10 -29 -11 -56 -2 -40 13 -100 6 -107 -13 -3 -9 -12 -7
-35 6 -42 24 -86 18 -127 -15 -42 -35 -51 -73 -30 -125 25 -62 104 -92 153
-58 19 14 24 14 51 0 36 -18 68 -19 101 -2 21 11 29 10 51 -2 24 -13 29 -13
53 3 23 14 30 15 43 4 9 -7 46 -13 90 -14 65 -2 77 0 103 23 31 26 38 59 21
92 -7 13 -6 18 5 18 10 0 14 -12 14 -38 0 -52 15 -86 40 -94 36 -11 60 20 60
77 0 26 4 48 8 48 5 0 9 -20 9 -45 1 -69 50 -110 83 -70 10 12 15 12 35 -1 18
-12 28 -12 48 -3 18 8 30 8 45 0 31 -17 66 -13 95 9 30 24 35 24 56 6 32 -27
74 -34 109 -17 61 28 46 104 -19 98 -15 -1 -28 3 -28 8 0 6 12 11 27 11 15 1
29 2 32 4 3 1 15 4 27 5 25 3 36 -16 27 -50 -9 -36 16 -85 43 -85 31 0 53 37
53 87 0 61 16 61 19 0 1 -36 8 -58 22 -72 18 -19 21 -19 48 -4 24 14 32 14 52
3 31 -17 67 -17 99 1 22 12 27 11 43 -3 17 -15 21 -15 48 1 28 15 32 16 55 0
20 -13 30 -14 49 -5 14 7 26 17 26 24 5 47 -4 175 -13 185 -14 17 -43 16 -58
-2 -7 -8 -18 -15 -25 -15 -7 0 -18 7 -25 15 -16 19 -44 19 -60 0 -8 -10 -17
-12 -24 -6 -23 18 -74 22 -109 7 -29 -12 -38 -12 -54 -1 -28 19 -308 17 -347
-3 -27 -13 -31 -13 -43 4 -13 17 -16 18 -41 4 -22 -13 -28 -25 -33 -65 -3 -28
-7 -43 -8 -35 -14 87 -28 114 -56 105 -11 -4 -27 -6 -35 -5 -8 1 -50 3 -92 4
-43 2 -83 5 -90 8 -7 2 -38 1 -68 -2z m-565 -44 c16 -12 17 -16 6 -30 -10 -12
-17 -14 -27 -5 -19 16 -61 3 -69 -21 -3 -10 -1 -29 5 -41 10 -18 18 -20 50
-15 27 4 39 2 43 -8 16 -41 -79 -51 -118 -11 -53 52 -16 145 58 145 18 0 42
-6 52 -14z m165 -6 c27 -27 35 -65 20 -101 -15 -36 -37 -49 -84 -49 -69 0
-103 94 -51 145 31 31 86 34 115 5z m113 -25 c39 -62 45 -62 39 -4 -4 48 -4
51 18 47 22 -3 23 -6 21 -83 -1 -44 -7 -84 -12 -90 -11 -11 -63 44 -74 78 -12
34 -28 18 -21 -22 4 -28 2 -42 -9 -51 -26 -22 -35 0 -35 86 0 80 1 84 23 84
15 0 30 -13 50 -45z m202 20 c0 -17 -6 -19 -32 -17 -40 4 -44 -15 -5 -24 39
-10 52 -23 52 -55 0 -34 -27 -52 -72 -47 -36 3 -59 31 -41 49 8 8 17 7 36 -6
17 -10 27 -13 32 -6 10 17 -2 28 -35 34 -34 7 -48 43 -30 77 9 17 19 21 53 18
34 -2 42 -7 42 -23z m190 16 c8 -13 -16 -26 -42 -23 -21 3 -22 -1 -25 -70 -2
-57 -6 -73 -18 -73 -12 0 -16 16 -18 73 -3 73 -3 73 -30 70 -19 -2 -28 2 -30
15 -3 15 6 17 77 17 44 0 82 -4 86 -9z m127 -8 c11 -13 16 -38 15 -85 -1 -77
-17 -95 -42 -48 -19 38 -43 39 -47 3 -2 -17 -9 -28 -18 -28 -12 0 -16 18 -18
88 l-3 87 49 0 c34 0 54 -5 64 -17z m80 -45 c3 -60 4 -63 28 -63 23 0 25 4 30
60 4 54 7 60 29 63 23 4 23 2 19 -62 -5 -80 -24 -106 -79 -106 -49 0 -67 26
-69 100 -2 72 -3 70 20 70 16 0 19 -8 22 -62z m258 47 c16 -19 -6 -53 -24 -35
-15 15 -37 12 -58 -7 -38 -34 -6 -79 49 -68 26 5 35 2 40 -11 8 -21 -13 -34
-55 -34 -45 0 -67 13 -82 49 -25 62 14 121 79 121 22 0 44 -6 51 -15z m178 -2
c-2 -13 -11 -17 -30 -15 -27 3 -27 3 -30 -70 -2 -57 -6 -73 -18 -73 -12 0 -16
16 -18 73 -3 73 -3 73 -30 70 -19 -2 -28 2 -30 15 -3 15 6 17 78 17 72 0 81
-2 78 -17z m62 -67 c0 -84 -9 -108 -33 -88 -8 7 -11 37 -9 91 3 72 6 81 23 81
17 0 19 -8 19 -84z m155 59 c52 -51 18 -145 -51 -145 -49 0 -70 14 -83 53 -13
39 -1 83 26 105 28 21 81 15 108 -13z m115 -25 c18 -27 34 -50 37 -50 2 0 3
21 1 48 -3 43 -1 47 20 50 22 3 23 2 20 -85 -4 -108 -17 -117 -68 -42 l-35 52
-5 -49 c-4 -35 -9 -49 -20 -49 -12 0 -16 18 -18 88 -3 80 -1 87 17 87 12 0 31
-18 51 -50z m-1665 -29 c19 -8 19 -8 -2 -15 -24 -8 -43 -1 -43 15 0 11 17 11
45 0z"/>
<path d="M1268 404 c-14 -30 -1 -58 28 -62 29 -3 47 13 47 43 0 48 -55 63 -75
19z m42 -20 c0 -8 -4 -12 -10 -9 -5 3 -10 10 -10 16 0 5 5 9 10 9 6 0 10 -7
10 -16z"/>
<path d="M1920 411 c0 -16 6 -21 26 -21 33 0 30 33 -4 38 -17 3 -22 -2 -22
-17z"/>
<path d="M2636 408 c-13 -19 -14 -25 -2 -43 26 -39 76 -26 76 19 0 46 -48 62
-74 24z m44 -17 c0 -6 -4 -13 -10 -16 -5 -3 -10 1 -10 9 0 9 5 16 10 16 6 0
10 -4 10 -9z"/>
</g>
</svg>
